<svg width="20" height="16" viewBox="0 0 20 16" fill="none" xmlns="http://www.w3.org/2000/svg">
<path d="M0.05 13.0623V2.93793C0.05 1.56645 1.16564 0.454785 2.53314 0.454785H10.72C12.0874 0.454785 13.2031 1.57048 13.2031 2.93793V4.57774C13.2031 4.82751 13.0011 5.02947 12.7514 5.02947C12.5016 5.02947 12.2996 4.82751 12.2996 4.57774V2.93793C12.2996 2.06593 11.5879 1.35417 10.7159 1.35417H2.53314C1.66115 1.35417 0.949388 2.06593 0.949388 2.93793V13.0623C0.949388 13.9343 1.66115 14.6461 2.53314 14.6461H10.7118C11.5838 14.6461 12.2956 13.9343 12.2956 13.0623V11.4225C12.2956 11.1728 12.4975 10.9708 12.7473 10.9708C12.9971 10.9708 13.199 11.1728 13.199 11.4225V13.0623C13.199 14.4298 12.0833 15.5455 10.7159 15.5455H2.53314C1.16569 15.5455 0.05 14.4298 0.05 13.0623Z" fill="black" stroke="white" stroke-width="0.1"/>
<path d="M15.7563 11.7381L15.7559 11.7378C15.5802 11.5657 15.5802 11.2797 15.7559 11.1076L15.7563 11.1072L18.3262 8.53739L18.4115 8.45204H18.2908H8.91696C8.66719 8.45204 8.46522 8.25007 8.46522 8.0003C8.46522 7.75053 8.66719 7.54857 8.91696 7.54857H18.2949H18.4156L18.3302 7.46321L15.7604 4.89336C15.5841 4.71708 15.5841 4.43465 15.7604 4.25838C15.9367 4.0821 16.2191 4.0821 16.3954 4.25838L19.8178 7.68077C19.994 7.85704 19.994 8.13948 19.8178 8.31575L16.3954 11.7381C16.3072 11.8263 16.1936 11.8704 16.0758 11.8704C15.9581 11.8704 15.8445 11.8263 15.7563 11.7381Z" fill="black" stroke="white" stroke-width="0.1"/>
</svg>
