<svg width="22" height="22" viewBox="0 0 22 22" fill="none" xmlns="http://www.w3.org/2000/svg">
<path d="M11 1C10.5024 1 10.0172 1.03885 9.53924 1.10901C9.49459 1.11387 9.4523 1.13155 9.41748 1.15992C9.38266 1.1883 9.3568 1.22614 9.34302 1.2689L8.71076 3.44186C8.20791 3.5942 7.73369 3.80105 7.27907 4.04506L5.28779 2.95494C5.24941 2.93386 5.20586 2.92404 5.16215 2.92661C5.11844 2.92918 5.07634 2.94404 5.0407 2.96948C4.65314 3.25781 4.28068 3.57688 3.92878 3.92878C3.57688 4.28068 3.25781 4.65314 2.96948 5.0407C2.94404 5.07634 2.92918 5.11844 2.92661 5.16215C2.92404 5.20586 2.93386 5.24941 2.95494 5.28779L4.04506 7.27907C3.80105 7.73369 3.5942 8.20791 3.44186 8.71076L1.2689 9.34302C1.22614 9.3568 1.1883 9.38266 1.15992 9.41748C1.13155 9.4523 1.11387 9.49459 1.10901 9.53924C1.03884 10.0172 1 10.5024 1 11C1 11.4976 1.03884 11.9828 1.10901 12.4608C1.11387 12.5054 1.13155 12.5477 1.15992 12.5825C1.1883 12.6173 1.22614 12.6432 1.2689 12.657L3.44186 13.2892C3.5942 13.7921 3.80105 14.2663 4.04506 14.7209L2.95494 16.7122C2.93386 16.7506 2.92404 16.7941 2.92661 16.8378C2.92918 16.8816 2.94404 16.9237 2.96948 16.9593C3.25781 17.3469 3.57688 17.7193 3.92878 18.0712C4.28068 18.4231 4.65314 18.7422 5.0407 19.0305C5.07634 19.056 5.11844 19.0708 5.16215 19.0734C5.20586 19.076 5.24941 19.0661 5.28779 19.0451L7.27907 17.9549C7.73369 18.1989 8.20791 18.4058 8.71076 18.5581L9.34302 20.7311C9.3568 20.7739 9.38266 20.8117 9.41748 20.8401C9.4523 20.8684 9.49459 20.8861 9.53924 20.891C10.0172 20.9612 10.5024 21 11 21C11.4976 21 11.9828 20.9612 12.4608 20.891C12.5054 20.8861 12.5477 20.8684 12.5825 20.8401C12.6173 20.8117 12.6432 20.7739 12.657 20.7311L13.2892 18.5581C13.7921 18.4058 14.2663 18.1989 14.7209 17.9549L16.7122 19.0451C16.7506 19.0661 16.7941 19.076 16.8378 19.0734C16.8816 19.0708 16.9237 19.056 16.9593 19.0305C17.3469 18.7422 17.7193 18.4231 18.0712 18.0712C18.4231 17.7193 18.7422 17.3469 19.0305 16.9593C19.056 16.9237 19.0708 16.8816 19.0734 16.8378C19.076 16.7941 19.0661 16.7506 19.0451 16.7122L17.9549 14.7209C18.1989 14.2663 18.4058 13.7921 18.5581 13.2892L20.7311 12.657C20.7739 12.6432 20.8117 12.6173 20.8401 12.5825C20.8684 12.5477 20.8861 12.5054 20.891 12.4608C20.9612 11.9828 21 11.4976 21 11C21 10.5024 20.9612 10.0172 20.891 9.53924C20.8861 9.49459 20.8684 9.4523 20.8401 9.41748C20.8117 9.38266 20.7739 9.3568 20.7311 9.34302L18.5581 8.71076C18.4058 8.20791 18.1989 7.73369 17.9549 7.27907L19.0451 5.28779C19.0661 5.24941 19.076 5.20586 19.0734 5.16215C19.0708 5.11844 19.056 5.07634 19.0305 5.0407C18.7422 4.65314 18.4231 4.28068 18.0712 3.92878C17.7193 3.57688 17.3469 3.25781 16.9593 2.96948C16.9237 2.94404 16.8816 2.92918 16.8378 2.92661C16.7941 2.92404 16.7506 2.93386 16.7122 2.95494L14.7209 4.04506C14.2663 3.80105 13.7921 3.5942 13.2892 3.44186L12.657 1.2689C12.6432 1.22614 12.6173 1.1883 12.5825 1.15992C12.5477 1.13155 12.5054 1.11387 12.4608 1.10901C11.9828 1.03885 11.4976 1 11 1ZM11 1.46512C11.4252 1.46512 11.8395 1.50554 12.25 1.55959L12.8677 3.68169C12.8796 3.71839 12.9005 3.75156 12.9284 3.7782C12.9563 3.80484 12.9904 3.82412 13.0276 3.8343C13.5897 3.99333 14.1264 4.22315 14.6265 4.50291C14.6609 4.52199 14.6997 4.53201 14.7391 4.53201C14.7785 4.53201 14.8173 4.52199 14.8517 4.50291L16.7922 3.43459C17.1211 3.68692 17.4432 3.95481 17.7442 4.25581C18.0452 4.55682 18.3131 4.87886 18.5654 5.20785L17.4971 7.14826C17.478 7.18273 17.468 7.22149 17.468 7.2609C17.468 7.30031 17.478 7.33907 17.4971 7.37355C17.7768 7.87361 18.0067 8.41032 18.1657 8.97238C18.1759 9.0096 18.1952 9.0437 18.2218 9.07161C18.2484 9.09952 18.2816 9.12037 18.3183 9.13227L20.4404 9.75C20.4945 10.1605 20.5349 10.5748 20.5349 11C20.5349 11.4252 20.4945 11.8395 20.4404 12.25L18.3183 12.8677C18.2816 12.8796 18.2484 12.9005 18.2218 12.9284C18.1952 12.9563 18.1759 12.9904 18.1657 13.0276C18.0067 13.5897 17.7768 14.1264 17.4971 14.6265C17.478 14.6609 17.468 14.6997 17.468 14.7391C17.468 14.7785 17.478 14.8173 17.4971 14.8517L18.5654 16.7922C18.3131 17.1211 18.0452 17.4432 17.7442 17.7442C17.4432 18.0452 17.1211 18.3131 16.7922 18.5654L14.8517 17.4971C14.8173 17.478 14.7785 17.468 14.7391 17.468C14.6997 17.468 14.6609 17.478 14.6265 17.4971C14.1264 17.7768 13.5897 18.0067 13.0276 18.1657C12.9904 18.1759 12.9563 18.1952 12.9284 18.2218C12.9005 18.2484 12.8796 18.2816 12.8677 18.3183L12.25 20.4404C11.8395 20.4945 11.4252 20.5349 11 20.5349C10.5748 20.5349 10.1605 20.4945 9.75 20.4404L9.13227 18.3183C9.12037 18.2816 9.09952 18.2484 9.07161 18.2218C9.0437 18.1952 9.0096 18.1759 8.97238 18.1657C8.41032 18.0067 7.87361 17.7768 7.37355 17.4971C7.33907 17.478 7.30031 17.468 7.2609 17.468C7.22149 17.468 7.18273 17.478 7.14826 17.4971L5.20785 18.5654C4.87886 18.3131 4.55682 18.0452 4.25581 17.7442C3.95481 17.4432 3.68692 17.1211 3.43459 16.7922L4.50291 14.8517C4.52199 14.8173 4.53201 14.7785 4.53201 14.7391C4.53201 14.6997 4.52199 14.6609 4.50291 14.6265C4.22315 14.1264 3.99333 13.5897 3.8343 13.0276C3.82412 12.9904 3.80484 12.9563 3.7782 12.9284C3.75156 12.9005 3.71839 12.8796 3.68169 12.8677L1.55959 12.25C1.50554 11.8395 1.46512 11.4252 1.46512 11C1.46512 10.5748 1.50554 10.1605 1.55959 9.75L3.68169 9.13227C3.71839 9.12037 3.75156 9.09952 3.7782 9.07161C3.80484 9.0437 3.82412 9.0096 3.8343 8.97238C3.99333 8.41032 4.22315 7.87361 4.50291 7.37355C4.52199 7.33907 4.53201 7.30031 4.53201 7.2609C4.53201 7.22149 4.52199 7.18273 4.50291 7.14826L3.43459 5.20785C3.68692 4.87886 3.95481 4.55682 4.25581 4.25581C4.55682 3.95481 4.87886 3.68692 5.20785 3.43459L7.14826 4.50291C7.18273 4.52199 7.22149 4.53201 7.2609 4.53201C7.30031 4.53201 7.33907 4.52199 7.37355 4.50291C7.87361 4.22315 8.41032 3.99333 8.97238 3.8343C9.0096 3.82412 9.0437 3.80484 9.07161 3.7782C9.09952 3.75156 9.12037 3.71839 9.13227 3.68169L9.75 1.55959C10.1605 1.50554 10.5748 1.46512 11 1.46512ZM11 6.5814C8.56243 6.5814 6.5814 8.56243 6.5814 11C6.5814 13.4376 8.56243 15.4186 11 15.4186C13.4376 15.4186 15.4186 13.4376 15.4186 11C15.4186 8.56243 13.4376 6.5814 11 6.5814ZM11 7.04651C13.1862 7.04651 14.9535 8.81379 14.9535 11C14.9535 13.1862 13.1862 14.9535 11 14.9535C8.81379 14.9535 7.04651 13.1862 7.04651 11C7.04651 8.81379 8.81379 7.04651 11 7.04651Z" fill="black" stroke="black" stroke-width="0.3"/>
</svg>
