<svg width="22" height="22" viewBox="0 0 22 22" fill="none" xmlns="http://www.w3.org/2000/svg">
<path d="M14.4251 7.76021V7.91021H14.5751H21.3569C21.6293 7.91021 21.85 8.13091 21.85 8.40323V17.5396C21.85 17.8119 21.6293 18.0326 21.3569 18.0326H19.8566H19.7066V18.1826V21.3482C19.7066 21.559 19.5726 21.7465 19.3732 21.8147C19.3205 21.8327 19.2667 21.8414 19.2137 21.8414C19.0641 21.8414 18.9191 21.7731 18.8239 21.6503L16.0657 18.0907L16.0206 18.0326H15.9471H10.1258C9.85366 18.0326 9.63281 17.8119 9.63281 17.5396V11.6823V11.5323H9.48281H6.02988H5.96172L5.91689 11.5836L3.15783 14.7435L3.15782 14.7435C3.06242 14.8528 2.92606 14.9122 2.78625 14.9122C2.72812 14.9122 2.66967 14.902 2.61327 14.8808L2.61323 14.8808C2.42093 14.8086 2.2934 14.6247 2.2934 14.4192V11.6823V11.5323H2.1434H0.643019C0.370699 11.5323 0.15 11.3116 0.15 11.0393V0.685988C0.15 0.413668 0.370699 0.192969 0.643019 0.192969H13.9321C14.2043 0.192969 14.4251 0.413694 14.4251 0.685988V7.76021ZM3.27944 12.7053V13.1052L3.54243 12.804L5.36637 10.715C5.46011 10.6077 5.59536 10.5462 5.73783 10.5462H9.48281H9.63281V10.3962V8.40323C9.63281 8.13093 9.85366 7.91021 10.1258 7.91021H13.2891H13.4391V7.76021V1.32901V1.17901H13.2891H1.28604H1.13604V1.32901V10.3962V10.5462H1.28604H2.78642C3.05874 10.5462 3.27944 10.7669 3.27944 11.0393V12.7053ZM20.7139 17.0466H20.8639V16.8966V9.04625V8.89625H20.7139H10.7689H10.6189V9.04625V16.8966V17.0466H10.7689H16.2623C16.4146 17.0466 16.5585 17.1171 16.652 17.2377L16.7705 17.1458L16.652 17.2377L18.452 19.5605L18.7205 19.9071V19.4687V17.5396C18.7205 17.2673 18.9412 17.0466 19.2135 17.0466H20.7139Z" fill="black" stroke="white" stroke-width="0.3"/>
</svg>
